<svg xmlns="http://www.w3.org/2000/svg" preserveAspectRatio="xMidYMid" width="14" height="14" viewBox="0 0 14 14"><defs><style>.cls-2{fill:#fff}</style></defs><path d="M7 0a7 7 0 1 0 0 14A7 7 0 0 0 7 0zm3.836 6.414L7.733 9.586c-.003.004-.004.009-.008.013l-.241.245a.661.661 0 0 1-.481.202.661.661 0 0 1-.481-.202l-.241-.245c-.004-.004-.004-.009-.008-.014L3.17 6.414a.702.702 0 0 1 0-.98l.239-.244a.666.666 0 0 1 .959 0l2.635 2.692L9.638 5.19a.666.666 0 0 1 .959 0l.239.244a.702.702 0 0 1 0 .98z" id="path-1" class="cls-2" fill-rule="evenodd"/></svg>