<svg xmlns="http://www.w3.org/2000/svg" preserveAspectRatio="xMidYMid" width="16" height="16" viewBox="0 0 16 16"><defs><style>.cls-2{fill:#57c5a0}</style></defs><path d="M15.953 4.348l-1.808 5.245c-.342 1.051-.953 1.487-2.175 1.487H8.127c-.938 0-1.493-.499-2.081-1.487L3.25 4.05H1.002A1.002 1.002 0 0 1 .001 3.046c0-.555.448-1.004 1.001-1.004h2.656c.413 0 1.174.371 1.363.953 0 0 1.524 3.247 2.44 5.041.329.753.789 1.035 1.477 1.035h2.125c.8 0 1.182-.223 1.477-1.026.508-1.792 1.504-4.297 1.504-4.297a.998.998 0 0 1 1.252-.658c.528.166.822.729.657 1.258zm-.657-1.258c-.526-.166.528.166 0 0zM10 6.603l-3.535-3.55H9l-.001-2.036A1.006 1.006 0 0 1 10 .012c.552.001 1 .451 1.001 1.005L11 3.053h2.536L10 6.603zm-2.5 5.588c.768 0 1.391.626 1.391 1.397s-.623 1.396-1.391 1.396a1.394 1.394 0 0 1-1.391-1.396c0-.771.623-1.397 1.391-1.397zm5-.031c.785 0 1.422.639 1.422 1.428 0 .788-.637 1.428-1.422 1.428-.785 0-1.422-.64-1.422-1.428 0-.789.637-1.428 1.422-1.428z" id="path-1" class="cls-2" fill-rule="evenodd"/></svg>