<svg xmlns="http://www.w3.org/2000/svg" preserveAspectRatio="xMidYMid" width="16" height="14" viewBox="0 0 16 14"><defs><style>.cls-2{fill:#6e6e6e}</style></defs><path d="M15.953 2.316l-1.808 5.26c-.342 1.055-.953 1.491-2.175 1.491H8.127c-.938 0-1.493-.499-2.081-1.491L3.251 2.017H1.002c-.553 0-1-.451-1-1.008 0-.556.447-1.007 1-1.007h2.656c.413 0 1.174.373 1.363.956 0 0 1.524 3.257 2.44 5.056.329.755.789 1.039 1.477 1.039h2.125c.8 0 1.182-.224 1.477-1.029.508-1.798 1.503-4.31 1.503-4.31a1 1 0 0 1 1.253-.661c.528.167.822.731.657 1.263zm-.657-1.263c-.526-.166.528.167 0 0zM7.5 10.183c.768 0 1.391.627 1.391 1.401 0 .773-.623 1.4-1.391 1.4a1.396 1.396 0 0 1-1.391-1.4c0-.774.623-1.401 1.391-1.401zm5-.031c.785 0 1.422.641 1.422 1.432 0 .79-.637 1.432-1.422 1.432a1.428 1.428 0 0 1-1.422-1.432c0-.791.637-1.432 1.422-1.432z" id="path-1" class="cls-2" fill-rule="evenodd"/></svg>