<svg xmlns="http://www.w3.org/2000/svg" preserveAspectRatio="xMidYMid" width="16" height="10" viewBox="0 0 16 10"><defs><style>.cls-2{fill:#6e6e6e}</style></defs><path d="M15.983 5.114c-.006.021-.003.043-.011.064-.002.008-.01.014-.013.021-.005.013-.004.026-.01.037-1.453 2.78-4.614 4.768-7.949 4.768S1.504 8.012.052 5.233c-.007-.012-.006-.025-.011-.037-.003-.008-.01-.013-.013-.021-.008-.021-.005-.043-.01-.064C.009 5.073 0 5.037 0 4.999c0-.038.009-.075.018-.112.005-.021.002-.044.01-.064.003-.009.01-.014.013-.022.005-.012.004-.025.011-.037C1.504 1.985 4.665-.003 8-.003s6.496 1.991 7.949 4.771c.006.012.005.025.01.037.003.008.011.013.013.021.008.021.005.043.011.064.008.038.017.074.017.112 0 .038-.009.074-.017.112zM8 .999C5.192.999 2.379 2.592 1 5c1.372 2.405 4.189 4 7 4 2.808 0 5.621-1.591 7-4C13.628 2.595 10.811.999 8 .999zm-.012 7.508a3.505 3.505 0 1 1 0-7.01 3.505 3.505 0 0 1 0 7.01zm0-6.509a3.007 3.007 0 0 0-3.004 3.004 3.008 3.008 0 0 0 3.004 3.005 3.008 3.008 0 0 0 3.005-3.005 3.008 3.008 0 0 0-3.005-3.004zM8 3.499c-.828 0-1.501.674-1.501 1.501a.25.25 0 0 1-.25.251.25.25 0 0 1-.25-.251c0-1.104.894-1.999 1.998-2.001H8a.25.25 0 0 1 0 .5z" id="path-1" class="cls-2" fill-rule="evenodd"/></svg>