<svg xmlns="http://www.w3.org/2000/svg" preserveAspectRatio="xMidYMid" width="20" height="17" viewBox="0 0 20 17"><defs><style>.cls-2{fill:#7d7d7d}</style></defs><path d="M16.199 4.192c0 1.026-.019 1.971-.019 2.996h-1.14c0-1.019-.019-1.977-.019-2.996-.987-.044-1.985.013-3.004 0V3.001h2.985c0-.987.019-1.933.019-2.921-.001-.026-.022-.053 0-.056h1.159c0 1-.018 1.977-.018 2.977.981.044 2.006-.012 3.019 0v1.191h-2.982zM8.435.774c.857.709 1.619 1.617 1.556 3.095-.063 1.492-1.01 2.094-1.875 2.794-.2.162-.506.494-.581.694-.314.826.525 1.293.956 1.613.394.293.729.547 1.031.806.638.547 1.242 1.247 1.238 2.457-.004 1.322-.764 2.243-1.613 2.851-.851.61-2.078 1.03-3.319 1.144-1.454.134-2.826-.037-3.882-.506-.955-.424-1.935-1.209-1.932-2.514a2.751 2.751 0 0 1 .656-1.744c1.772-1.975 3.029-1.665 5.345-1.838-.124-.244-.462-.535-.581-.9-.153-.468-.059-.99.15-1.369-1.482.191-2.666-.238-3.451-.994a3.237 3.237 0 0 1-.919-3.001c.229-1.079.868-1.859 1.669-2.4C3.72.397 4.741.005 6.072.005h5.138L9.785.774h-1.35zM3.09 10.939c-.342.211-.75.526-.976 1.126-.15.4-.152.927-.037 1.331.326 1.146 1.687 1.808 3.113 1.932 1.542.133 3.099-.106 3.77-1.201.364-.593.378-1.456.019-2.044-.423-.691-1-.993-1.613-1.425-.186-.131-.37-.348-.619-.413-.172-.045-.525-.009-.713 0-1.224.058-2.2.236-2.944.694zM6.203.962C5.893.786 5.402.688 4.946.737c-.893.095-1.478.662-1.688 1.275-.296.869-.066 2.036.244 2.794.337.824.862 1.497 1.501 1.801 1.027.49 2.39-.004 2.813-.882.117-.242.17-.6.187-.862.111-1.688-.787-3.326-1.8-3.901z" id="path-1" class="cls-2" fill-rule="evenodd"/></svg>