<svg xmlns="http://www.w3.org/2000/svg" preserveAspectRatio="xMidYMid" width="18" height="19" viewBox="0 0 18 19"><defs><style>.cls-2{fill:#7d7d7d}</style></defs><path d="M14.467 18.599v-7.933c0-.686-.091-1.212-.273-1.579-.333-.67-.966-1.006-1.9-1.006-1.149 0-1.936.491-2.364 1.472-.222.519-.333 1.181-.333 1.987v7.059H6.525V5.393H9.49v2.09c.436-.67.85-1.152 1.239-1.447.699-.527 1.585-.79 2.657-.79 1.342 0 2.44.353 3.294 1.059.854.706 1.281 1.876 1.281 3.512v8.782h-3.494zM2.098 4.221a2.112 2.112 0 1 1 .001-4.223 2.112 2.112 0 0 1-.001 4.223zm1.659 14.378H.299V5.557h3.458v13.042z" id="path-1" class="cls-2" fill-rule="evenodd"/></svg>