<svg xmlns="http://www.w3.org/2000/svg" preserveAspectRatio="xMidYMid" width="16" height="13" viewBox="0 0 16 13"><defs><style>.cls-2{fill:#6e6e6e}</style></defs><path d="M10.96 8.004V5.562c-5.448 0-6.987 2.436-6.987 2.436 0-5.365 6.858-5.655 6.986-5.655l.001-2.344L16 4.02l-5.04 3.984zM5 2l-.01-.002v.003h-4v10h12v-2H13V10c0-.553-.021-1 0-1a1 1 0 0 1 1 1v1c0 .034-.016.063-.019.096a1.996 1.996 0 0 1-1.991 1.905h-10a2 2 0 0 1-2-2v-8c0-1.104.897-2 2-2h3v.001L5 1a1 1 0 0 1 1 1c0 .021-.447 0-1 0z" id="path-1" class="cls-2" fill-rule="evenodd"/></svg>