<svg xmlns="http://www.w3.org/2000/svg" preserveAspectRatio="xMidYMid" width="16" height="16" viewBox="0 0 16 16"><defs><style>.cls-2{fill:#6e6e6e}</style></defs><path d="M15.927 5.969a1.16 1.16 0 0 0-.92-.779l-4.156-.638L9.044.681a1.152 1.152 0 0 0-2.088 0L5.149 4.552.993 5.19a1.158 1.158 0 0 0-.92.779c-.137.413-.033.867.268 1.178l3.046 3.139-.706 4.354c-.072.439.112.879.473 1.136a1.15 1.15 0 0 0 1.223.067L8 13.829l3.624 2.014a1.153 1.153 0 0 0 1.696-1.203l-.707-4.354 3.046-3.139c.302-.311.405-.765.268-1.178zm-4.139 3.507a1.161 1.161 0 0 0-.313.996l.706 4.356-3.623-2.014a1.155 1.155 0 0 0-1.116 0l-3.624 2.014.707-4.356a1.164 1.164 0 0 0-.312-.996L1.167 6.337l4.156-.639c.38-.058.707-.303.87-.653L8 1.174l1.807 3.871c.163.35.49.595.87.653l4.156.639-3.045 3.139z" id="path-1" class="cls-2" fill-rule="evenodd"/></svg>