<svg xmlns="http://www.w3.org/2000/svg" preserveAspectRatio="xMidYMid" width="15" height="15" viewBox="0 0 15 15"><defs><style>.cls-2{fill:#bcb5a7}</style></defs><path d="M14 15H9a1 1 0 0 1-1-1V9a1 1 0 0 1 1-1h5a1 1 0 0 1 1 1v5a1 1 0 0 1-1 1zm0-8H9a1 1 0 0 1-1-1V1a1 1 0 0 1 1-1h5a1 1 0 0 1 1 1v5a1 1 0 0 1-1 1zm-8 8H1a1 1 0 0 1-1-1V9a1 1 0 0 1 1-1h5a1 1 0 0 1 1 1v5a1 1 0 0 1-1 1zm0-8H1a1 1 0 0 1-1-1V1a1 1 0 0 1 1-1h5a1 1 0 0 1 1 1v5a1 1 0 0 1-1 1z" id="path-1" class="cls-2" fill-rule="evenodd"/></svg>