<svg xmlns="http://www.w3.org/2000/svg" preserveAspectRatio="xMidYMid" width="19" height="17" viewBox="0 0 19 17"><defs><style>.cls-2{fill:#7d7d7d}</style></defs><path d="M19.202 1.936c-.092.721-1.138 1.445-1.772 1.993.626 9.216-9.824 14.965-17.417 10.295 2.129.016 4.527-.568 5.794-1.771-1.842-.299-3.147-1.134-3.653-2.768.539-.051 1.297.116 1.661-.111C2.13 8.935.797 7.942.715 5.7c.6.064.912.416 1.66.332C1.286 5.334.042 2.678 1.158.719 3.135 2.911 5.603 4.612 9.46 4.925c-.957-4.069 4.437-6.59 6.864-3.653.943-.2 1.738-.549 2.545-.886-.33.924-1.002 1.507-1.66 2.104.715-.134 1.471-.227 1.993-.554z" id="path-1" class="cls-2" fill-rule="evenodd"/></svg>